<?xml version="1.0" encoding="utf-8"?>
<!-- Generator: Adobe Illustrator 25.3.1, SVG Export Plug-In . SVG Version: 6.00 Build 0)  -->
<svg version="1.1" id="Layer_1" xmlns="http://www.w3.org/2000/svg" xmlns:xlink="http://www.w3.org/1999/xlink" x="0px" y="0px"
	 viewBox="0 0 435 200" style="enable-background:new 0 0 435 200;" xml:space="preserve">
<style type="text/css">
	.st0{opacity:0.1;}
	.st1{fill:#020202;}
	.st2{fill:#B73AD6;}
	.st3{fill:#C670DB;}
	.st4{fill:#FFFFFF;}
	.st5{fill:#D1A6DB;}
	.st6{fill:#EDD9F2;}
	.st7{fill:#C158DB;}
</style>
<g id="XMLID_339_">
	<g id="XMLID_137_" class="st0">
		<path id="XMLID_81_" class="st1" d="M415.2,38.5L415.2,38.5c0,12.7-10.3,23-23,23h-53.9l0,0c0,17.7-14.4,32.1-32,32.1h-44.4
			c-9.9,0-17.9,8-17.9,17.9l0,0c0,9.9,8,17.9,17.9,17.9h154.1c10.3,0,18.7,8.4,18.7,18.7l0,0c0,10.3-8.4,18.7-18.7,18.7H315.5
			c-16,0-28.9,13-28.8,28.9l0,0L91.6,196l0.6-34.2H22.8c-12.3,0-22.4-10-22.4-22.3l0,0c0-12.3,10-22.4,22.4-22.4h53.8
			c11.4,0,20.6-9.2,20.6-20.6l0,0c0-11.4-9.2-20.6-20.6-20.6h-5c-16.7,0-30.2-13.5-30.2-30.2l0,0c0-16.7,13.5-30.2,30.2-30.2h320.5
			C404.9,15.5,415.2,25.8,415.2,38.5z"/>
	</g>
	<g id="XMLID_184_">
		<g id="XMLID_186_">
			<path id="XMLID_737_" class="st2" d="M175.2,39.2h-8.6c-0.8,0-1.5-0.7-1.5-1.5s0.7-1.5,1.5-1.5h8.6c0.8,0,1.5,0.7,1.5,1.5
				S176.1,39.2,175.2,39.2z"/>
		</g>
		<g id="XMLID_185_">
			<path id="XMLID_736_" class="st2" d="M170.9,43.5c-0.8,0-1.5-0.7-1.5-1.5v-8.6c0-0.8,0.7-1.5,1.5-1.5c0.8,0,1.5,0.7,1.5,1.5V42
				C172.4,42.9,171.8,43.5,170.9,43.5z"/>
		</g>
	</g>
	<g id="XMLID_286_">
		<g id="XMLID_303_">
			<path id="XMLID_735_" class="st2" d="M380.7,102.4h-8.6c-0.8,0-1.5-0.7-1.5-1.5c0-0.8,0.7-1.5,1.5-1.5h8.6c0.8,0,1.5,0.7,1.5,1.5
				S381.5,102.4,380.7,102.4z"/>
		</g>
		<g id="XMLID_301_">
			<path id="XMLID_734_" class="st2" d="M376.4,106.7c-0.8,0-1.5-0.7-1.5-1.5v-8.6c0-0.8,0.7-1.5,1.5-1.5s1.5,0.7,1.5,1.5v8.6
				C377.9,106.1,377.2,106.7,376.4,106.7z"/>
		</g>
	</g>
	<g id="XMLID_133_">
		<g id="XMLID_138_">
			<path id="XMLID_733_" class="st2" d="M248.3,10.6c-0.4,0-0.8-0.1-1.1-0.4c-0.6-0.6-0.6-1.5,0-2.1l6.1-6.1c0.6-0.6,1.5-0.6,2.1,0
				c0.6,0.6,0.6,1.5,0,2.1l-6.1,6.1C249.1,10.5,248.7,10.6,248.3,10.6z"/>
		</g>
		<g id="XMLID_136_">
			<path id="XMLID_732_" class="st2" d="M254.4,10.6c-0.4,0-0.8-0.1-1.1-0.4l-6.1-6.1c-0.6-0.6-0.6-1.5,0-2.1c0.6-0.6,1.5-0.6,2.1,0
				l6.1,6.1c0.6,0.6,0.6,1.5,0,2.1C255.2,10.5,254.8,10.6,254.4,10.6z"/>
		</g>
	</g>
	<g id="XMLID_307_">
		<g id="XMLID_309_">
			<path id="XMLID_731_" class="st2" d="M103.1,83.7c-0.4,0-0.8-0.1-1.1-0.4c-0.6-0.6-0.6-1.5,0-2.1l6.1-6.1c0.6-0.6,1.5-0.6,2.1,0
				c0.6,0.6,0.6,1.5,0,2.1l-6.1,6.1C103.9,83.6,103.5,83.7,103.1,83.7z"/>
		</g>
		<g id="XMLID_308_">
			<path id="XMLID_730_" class="st2" d="M109.2,83.7c-0.4,0-0.8-0.1-1.1-0.4l-6.1-6.1c-0.6-0.6-0.6-1.5,0-2.1c0.6-0.6,1.5-0.6,2.1,0
				l6.1,6.1c0.6,0.6,0.6,1.5,0,2.1C110,83.6,109.6,83.7,109.2,83.7z"/>
		</g>
	</g>
	<g id="XMLID_135_">
		<rect id="XMLID_729_" x="110.8" y="36.2" class="st2" width="35" height="3"/>
	</g>
	<g id="XMLID_266_">
		<rect id="XMLID_728_" x="328.3" y="99.4" class="st2" width="35" height="3"/>
	</g>
	<g id="XMLID_335_">
		<rect id="XMLID_727_" x="273.9" y="31.9" class="st2" width="66.8" height="3"/>
	</g>
	<g id="XMLID_414_">
		<rect id="XMLID_726_" x="150.9" y="4.6" class="st2" width="89.9" height="3"/>
	</g>
	<g id="XMLID_306_">
		<rect id="XMLID_725_" x="20.7" y="77.7" class="st2" width="77.2" height="3"/>
	</g>
	<g id="XMLID_304_">
		<rect id="XMLID_724_" x="341.9" y="80.1" class="st2" width="69" height="3"/>
	</g>
	<g id="XMLID_105_">
		<rect id="XMLID_723_" x="148.8" y="36.2" class="st2" width="7.2" height="3"/>
	</g>
	<g id="XMLID_104_">
		<circle id="XMLID_82_" class="st2" cx="55.4" cy="139.3" r="2.4"/>
	</g>
	<g id="XMLID_327_">
		<circle id="XMLID_84_" class="st2" cx="408.5" cy="99.2" r="2.4"/>
	</g>
	<g id="XMLID_329_">
		<circle id="XMLID_85_" class="st2" cx="318.2" cy="50.8" r="2.4"/>
	</g>
	<g id="XMLID_332_">
		<circle id="XMLID_86_" class="st2" cx="112.2" cy="10.5" r="3.5"/>
	</g>
	<g id="XMLID_324_">
		<circle id="XMLID_87_" class="st2" cx="201.5" cy="24.4" r="2.4"/>
	</g>
	<g id="XMLID_256_">
		<circle id="XMLID_89_" class="st2" cx="81.4" cy="96.2" r="3"/>
	</g>
	<g id="XMLID_326_">
		<circle id="XMLID_90_" class="st2" cx="366.4" cy="141.7" r="3"/>
	</g>
	<g id="XMLID_330_">
		<circle id="XMLID_91_" class="st2" cx="345.8" cy="3" r="3"/>
	</g>
	<g id="XMLID_95_">
		<g id="XMLID_116_">
			<path class="st3" d="M311.2,154.3H148.5V61.4c0-2.2,1.8-4,4-4h154.8c2.2,0,4,1.8,4,4L311.2,154.3L311.2,154.3z"/>
		</g>
		<g id="XMLID_115_">
			<path id="XMLID_722_" class="st2" d="M150,106h-3V65.3c0-5.2,4.2-9.4,9.4-9.4h38.5v3h-38.5c-3.5,0-6.4,2.9-6.4,6.4L150,106
				L150,106z"/>
		</g>
		<g id="XMLID_112_">
			<path id="XMLID_721_" class="st2" d="M312.7,111.7h-3V65.3c0-3.5-2.9-6.4-6.4-6.4h-34.7v-3h34.7c5.2,0,9.4,4.2,9.4,9.4V111.7
				L312.7,111.7z"/>
		</g>
		<g id="XMLID_109_">
			<rect x="157.3" y="66.9" class="st4" width="145.3" height="76.4"/>
		</g>
		<g id="XMLID_106_">
			<rect x="205.3" y="168.9" class="st4" width="49" height="29"/>
		</g>
		<g id="XMLID_103_">
			<rect x="205.3" y="168.9" class="st5" width="49" height="14.5"/>
		</g>
		<g id="XMLID_102_">
			<path id="XMLID_718_" class="st2" d="M255.9,199.5h-52v-32h52V199.5z M206.8,196.4h46v-26h-46V196.4z"/>
		</g>
		<g id="XMLID_101_">
			<path class="st4" d="M311.2,150.7H148.5v18c0,2.2,1.8,4,4,4h154.7c2.2,0,4-1.8,4-4L311.2,150.7L311.2,150.7z"/>
		</g>
		<g id="XMLID_98_">
			<rect id="XMLID_717_" x="192.7" y="171.2" class="st2" width="89.3" height="3"/>
		</g>
		<g id="XMLID_97_">
			<rect id="XMLID_716_" x="193.7" y="149.2" class="st2" width="89.3" height="3"/>
		</g>
		<g id="XMLID_96_">
			<rect id="XMLID_715_" x="195.8" y="197" class="st2" width="68.7" height="3"/>
		</g>
	</g>
	<g id="XMLID_75_">
		<g id="XMLID_802_">
			<path class="st5" d="M187.5,193.8H74.5c-1.1,0-2-0.9-2-2v-80c0-1.1,0.9-2,2-2h112.9c1.1,0,2,0.9,2,2v80
				C189.5,192.9,188.6,193.8,187.5,193.8z"/>
		</g>
		<g id="XMLID_801_">
			<rect id="XMLID_714_" x="163.7" y="108.3" class="st2" width="8.1" height="3"/>
		</g>
		<g id="XMLID_93_">
			<path id="XMLID_713_" class="st2" d="M74,188.9h-3v-76.2c0-2.4,2-4.4,4.4-4.4h83.1v3H75.4c-0.8,0-1.4,0.6-1.4,1.4V188.9z"/>
		</g>
		<g id="XMLID_92_">
			<path id="XMLID_712_" class="st2" d="M186.6,195.3v-3c0.8,0,1.4-0.6,1.4-1.4v-78.2c0-0.8-0.6-1.4-1.4-1.4h-11.4v-3h11.4
				c2.4,0,4.4,2,4.4,4.4v78.2C191,193.4,189,195.3,186.6,195.3z"/>
		</g>
		<g id="XMLID_799_">
			<rect x="78.2" y="116.4" class="st4" width="105" height="68.2"/>
		</g>
		<g id="XMLID_798_">
			<path id="XMLID_100_" class="st4" d="M187.4,198.5H73.3c-2.7,0-5.1-2-5.5-4.7l-0.8-5h52.9l2,2.9h14.6l2.2-2.9h55.7l-0.7,4.3
				C193.2,196.2,190.6,198.5,187.4,198.5z"/>
		</g>
		<g id="XMLID_797_">
			<path id="XMLID_708_" class="st2" d="M187.4,200H73.3c-3.5,0-6.4-2.5-7-6l-1.1-6.7h55.5l2,2.9h13.1l2.2-2.9h58.3l-1,6.1
				C194.6,197.2,191.3,200,187.4,200z M68.7,190.4l0.5,3.2c0.3,2,2,3.4,4,3.4h114.1c2.4,0,4.4-1.7,4.8-4.1l0.4-2.6h-53.2l-2.2,2.9
				h-16.2l-2-2.9L68.7,190.4L68.7,190.4z"/>
		</g>
	</g>
	<g id="XMLID_139_">
		<g id="XMLID_284_">
			<path class="st4" d="M286.2,194.6v-75.1c0-2.1,1.7-3.8,3.8-3.8H342c2.1,0,3.8,1.7,3.8,3.8v75.1c0,2.1-1.7,3.9-3.8,3.9h-51.9
				C287.9,198.5,286.2,196.8,286.2,194.6z"/>
		</g>
		<g id="XMLID_283_">
			<path id="XMLID_707_" class="st2" d="M342,200h-51.9c-3,0-5.4-2.4-5.4-5.4v-75.1c0-3,2.4-5.4,5.4-5.4H342c3,0,5.4,2.4,5.4,5.4
				v4.4h-3v-4.4c0-1.3-1-2.3-2.3-2.3h-51.9c-1.3,0-2.3,1-2.3,2.3v75.1c0,1.3,1,2.3,2.3,2.3H342c1.3,0,2.3-1,2.3-2.3v-50.4h3v50.4
				C347.3,197.6,344.9,200,342,200z"/>
		</g>
		<g id="XMLID_281_">
			<rect id="XMLID_706_" x="344.3" y="132.1" class="st2" width="3" height="6.7"/>
		</g>
		<g id="XMLID_251_">
			<rect id="XMLID_705_" x="308.4" y="120.6" class="st2" width="15.3" height="3"/>
		</g>
		<g id="XMLID_248_">
			<rect x="291.3" y="126.4" class="st6" width="49.4" height="60.5"/>
		</g>
		<g id="XMLID_143_">
			<path id="XMLID_701_" class="st2" d="M316,194.5c-2,0-3.7-1.6-3.7-3.7s1.6-3.7,3.7-3.7s3.7,1.6,3.7,3.7
				C319.7,192.9,318,194.5,316,194.5z M316,190.2c-0.4,0-0.6,0.3-0.6,0.6s0.3,0.6,0.6,0.6s0.6-0.3,0.6-0.6
				C316.7,190.5,316.4,190.2,316,190.2z"/>
		</g>
	</g>
	<g id="XMLID_290_">
		<g id="XMLID_300_">
			<path id="XMLID_130_" class="st7" d="M131.2,126.1v24.3l0,0l17.2,17.2c4.4-4.4,7.1-10.5,7.1-17.2c0,0,0,0,0-0.1
				C155.5,137,144.6,126.1,131.2,126.1z"/>
		</g>
		<g id="XMLID_299_">
			<path id="XMLID_131_" class="st3" d="M113.3,133.2c-4.4,4.4-7.1,10.5-7.2,17.2l24.3,0.1v0v-24.3
				C123.8,126.1,117.7,128.8,113.3,133.2z"/>
		</g>
		<g id="XMLID_295_">
			<path id="XMLID_132_" class="st5" d="M130.5,152.7L130.5,152.7l-24.3-0.1c0,0,0,0,0,0c0,13.4,10.9,24.3,24.3,24.3
				c6.7,0,12.8-2.7,17.2-7.1L130.5,152.7z"/>
		</g>
		<g id="XMLID_570_">
			<path id="XMLID_698_" class="st2" d="M130.7,178.5c-15.1,0-27.4-12.3-27.4-27.4c0-15.1,12.3-27.4,27.4-27.4s27.4,12.3,27.4,27.4
				C158.1,166.2,145.8,178.5,130.7,178.5z M130.7,126.6c-13.5,0-24.4,11-24.4,24.4c0,13.5,11,24.4,24.4,24.4s24.4-11,24.4-24.4
				C155.1,137.6,144.1,126.6,130.7,126.6z"/>
		</g>
		<g id="XMLID_294_">
			<polygon id="XMLID_697_" class="st2" points="146.6,169.8 130.1,153.5 104.8,153.5 104.8,150.5 131.3,150.5 148.7,167.6 			"/>
		</g>
		<g id="XMLID_291_">
			<rect id="XMLID_696_" x="128.2" y="124.6" class="st2" width="3" height="26.8"/>
		</g>
	</g>
	<g id="XMLID_323_">
		<rect id="XMLID_1047_" x="199.1" y="42.2" class="st3" width="18" height="101.5"/>
	</g>
	<g id="XMLID_319_">
		<rect id="XMLID_1046_" x="199.1" y="42.2" class="st5" width="9" height="101.5"/>
	</g>
	<g id="XMLID_317_">
		<polygon id="XMLID_695_" class="st2" points="218.6,143.7 215.6,143.7 215.6,43.7 200.6,43.7 200.6,143.7 197.6,143.7 197.6,40.7 
			218.6,40.7 		"/>
	</g>
	<g id="XMLID_316_">
		<rect x="222.5" y="26.8" class="st5" width="18" height="116.8"/>
	</g>
	<g id="XMLID_315_">
		<rect x="222.5" y="26.8" class="st6" width="9" height="116.8"/>
	</g>
	<g id="XMLID_313_">
		<polygon id="XMLID_694_" class="st2" points="242.1,143.7 239,143.7 239,28.3 224,28.3 224,143.7 221,143.7 221,25.3 242.1,25.3 
					"/>
	</g>
	<g id="XMLID_312_">
		<rect id="XMLID_1045_" x="246.9" y="14.7" class="st3" width="18" height="129"/>
	</g>
	<g id="XMLID_311_">
		<rect id="XMLID_1044_" x="246.9" y="14.7" class="st5" width="9" height="129"/>
	</g>
	<g id="XMLID_310_">
		<polygon id="XMLID_693_" class="st2" points="266.4,143.7 263.4,143.7 263.4,16.2 248.4,16.2 248.4,143.7 245.4,143.7 245.4,13.2 
			266.4,13.2 		"/>
	</g>
	<g id="XMLID_250_">
		<g id="XMLID_626_">
			<polygon id="XMLID_134_" class="st3" points="291.4,163.3 291.4,186.9 302,186.8 302,154.4 			"/>
		</g>
		<g id="XMLID_625_">
			<polygon id="XMLID_140_" class="st3" points="311.3,158.5 311.3,158.5 311.3,186.8 323.5,186.8 323.5,149.4 			"/>
		</g>
		<g id="XMLID_623_">
			<polygon id="XMLID_141_" class="st5" points="302.1,154.3 302,154.4 302,186.8 311.3,186.8 311.3,158.5 			"/>
		</g>
		<g id="XMLID_622_">
			<polygon id="XMLID_142_" class="st3" points="340.7,145.4 331.1,153.7 331.1,186.8 340.7,186.7 			"/>
		</g>
		<g id="XMLID_621_">
			<polygon id="XMLID_144_" class="st5" points="331.1,153.7 323.5,149.4 323.5,186.8 331.1,186.8 			"/>
		</g>
		<g id="XMLID_619_">
			<polygon id="XMLID_692_" class="st2" points="293,164.1 291.4,164.1 291.4,161.1 291.8,161.1 301.8,152.6 311.1,156.8 
				323.4,147.6 330.9,151.8 339.5,144.5 340.7,144.5 340.7,146.7 341,147.1 340.7,147.4 340.7,147.5 340.6,147.5 331.3,155.5 
				323.6,151.2 311.5,160.2 302.3,156.2 			"/>
		</g>
	</g>
	<g id="XMLID_99_">
		<g id="XMLID_189_">
			<rect id="XMLID_691_" x="42.5" y="197" class="st2" width="329.6" height="3"/>
		</g>
		<g id="XMLID_188_">
			<rect id="XMLID_690_" x="33.3" y="197" class="st2" width="5.5" height="3"/>
		</g>
		<g id="XMLID_187_">
			<rect id="XMLID_689_" x="375.2" y="197" class="st2" width="12.2" height="3"/>
		</g>
	</g>
</g>
</svg>
